# xmcd
#
# Track frame offsets:
#	150
#	13959
#	43243
#	56946
#	70281
#	84304
#	106659
#	123191
#	140631
#	156492
#	168301
#	178730
#	191561
#	218672
#	242491
#	253718
#
# Disc length: 3558 seconds
#
# Revision: 0
# Processed by: cddbd v1.5.1PL2 Copyright (c) Steve Scherf et al.
# Submitted via: dBpowerAMP V4.0
#
DISCID=e60de410
DTITLE=Muddy Waters - Born With The Blues
DYEAR=1900
DGENRE=Blues
TTITLE0=Hoochie Coochie Man
TTITLE1=Howlin' Wolf
TTITLE2=I Got My Mojo Working
TTITLE3=Mean Mistreater
TTITLE4=Close To You
TTITLE5=Soon Forgotten
TTITLE6=Corrina Corrina
TTITLE7=Blow Wind Blow
TTITLE8=Iodine In My Coffee
TTITLE9=You Gonna Miss Me
TTITLE10=Mean Red Spider
TTITLE11=Baby Please Don't Go
TTITLE12=Caldonia
TTITLE13=Screamin' and Cryin'
TTITLE14=I Can't Call Her Sugar
TTITLE15=Can't Lose What You Ain't Never Had
EXTD=
EXTT0=
EXTT1=
EXTT2=
EXTT3=
EXTT4=
EXTT5=
EXTT6=
EXTT7=
EXTT8=
EXTT9=
EXTT10=
EXTT11=
EXTT12=
EXTT13=
EXTT14=
EXTT15=
PLAYORDER=
